<svg width="30" height="30" viewBox="0 0 30 30" fill="none" xmlns="http://www.w3.org/2000/svg">
<path d="M23.9479 13.3406C21.9839 11.3765 19.1995 10.7343 16.6964 11.4047C16.3214 10.9734 15.801 10.6734 15.2104 10.5937C14.5214 10.5047 13.8276 10.7156 13.3073 11.1703C13.2792 11.1937 13.2557 11.2172 13.2323 11.2453L11.3526 9.3656L12.6792 8.03903C13.2276 7.4906 13.2276 6.59997 12.6792 6.05153C12.1288 5.50116 11.2422 5.50104 10.6917 6.05153L9.36511 7.3781L8.03855 6.05153C7.49011 5.5031 6.59948 5.5031 6.05105 6.05153C5.50068 6.6019 5.5005 7.48849 6.05105 8.03903L7.37761 9.3656L6.05105 10.6922C5.50261 11.2406 5.50261 12.1312 6.05105 12.6797C6.60136 13.23 7.488 13.2302 8.03855 12.6797L9.36511 11.3531L11.2448 13.2328C11.2167 13.2562 11.1932 13.2797 11.1698 13.3078C10.7151 13.8281 10.5042 14.5218 10.5932 15.2109C10.6729 15.8015 10.9729 16.3218 11.4042 16.6968C10.7057 19.289 11.4229 22.1812 13.5557 24.1547C16.3776 26.7656 20.8354 26.789 23.676 24.2062C26.8729 21.3093 26.9667 16.3593 23.9479 13.3406ZM13.0589 16.3828C12.5151 16.3781 12.0276 16.1062 11.7557 15.6937C11.1307 14.7802 11.7612 13.439 12.9604 13.439C12.9651 13.439 12.9651 13.439 12.9698 13.439C13.2761 13.4124 13.4385 13.2155 13.4385 12.9703C13.4385 11.7683 14.771 11.1252 15.6932 11.7562C16.1057 12.0281 16.3776 12.5156 16.3823 13.0593C16.3938 14.8765 16.3906 14.2582 16.3964 15.7687C16.3964 16.1451 16.0743 16.4159 15.7682 16.3968C14.2588 16.391 14.8768 16.3943 13.0589 16.3828ZM21.9604 21.9609C20.1276 23.789 17.1604 23.789 15.3323 21.9609C14.076 20.7047 13.6823 18.914 14.1464 17.325L15.7635 17.3343C15.7635 17.3343 15.7682 17.3343 15.7729 17.3343C16.596 17.3343 17.3339 16.6709 17.3339 15.764L17.3245 14.1468C18.9135 13.6828 20.7042 14.0765 21.9604 15.3328C23.7885 17.1609 23.7885 20.1281 21.9604 21.9609ZM8.87866 18.0012L8.8997 19.6756C8.90304 19.9391 8.68853 20.1535 8.42509 20.1502L6.75071 20.1291C6.16185 20.1218 5.62642 19.6999 5.56173 19.1145C5.48808 18.4489 6.00171 17.8954 6.6531 17.9036C6.64489 17.2521 7.19837 16.7386 7.86405 16.8122C8.44935 16.8769 8.87122 17.4123 8.87866 18.0012ZM16.8117 7.86448C16.738 7.1988 17.2517 6.64532 17.903 6.65353C17.8948 6.00208 18.4483 5.48851 19.114 5.56216C19.6993 5.62685 20.1212 6.16228 20.1286 6.75114L20.1496 8.42552C20.153 8.68901 19.9385 8.90341 19.675 8.90013L18.0007 8.87909C17.4118 8.87171 16.8764 8.44983 16.8117 7.86448Z" fill="#9C45FF"/>
</svg>
