<svg width="30" height="30" viewBox="0 0 30 30" fill="none" xmlns="http://www.w3.org/2000/svg">
<path d="M23.6512 12.3265C21.5478 10.2209 18.573 9.53413 15.8987 10.251C15.498 9.7898 14.9421 9.47397 14.3161 9.38875C13.5749 9.29349 12.8387 9.51909 12.2828 10.0054C12.2528 10.0304 12.2277 10.0555 12.2027 10.0856L9.65859 7.53385H12.1777C12.9038 7.53385 13.5699 7.04756 13.7101 6.33067C13.8904 5.37314 13.1592 4.53091 12.2327 4.53091H6.53354C5.42675 4.53091 4.53031 5.42828 4.53031 6.53621V12.2413C4.53031 12.6524 4.69557 13.0334 4.96601 13.3091C5.31658 13.655 5.84243 13.8305 6.3833 13.7051C7.07442 13.5447 7.53015 12.888 7.53015 12.1811V9.66447L10.0793 12.2112C10.0492 12.2363 10.0242 12.2613 9.99914 12.2914C9.51336 12.8479 9.28799 13.5898 9.38315 14.3268C9.46828 14.9534 9.78379 15.5099 10.2445 15.911C9.50835 18.6532 10.2495 21.7063 12.4681 23.8169C15.473 26.6794 20.3108 26.7346 23.3757 23.9372C26.7812 20.829 26.8714 15.55 23.6512 12.3265ZM12.0174 15.5801C11.4365 15.5751 10.9156 15.2843 10.6201 14.8381C10.4949 14.6476 10.4098 14.4321 10.3798 14.1964C10.2525 13.2197 11.004 12.4318 11.9122 12.4318C11.9172 12.4318 11.9172 12.4318 11.9222 12.4318C12.2514 12.4074 12.4231 12.1881 12.4231 11.9305C12.4231 10.6787 13.8001 9.95079 14.8269 10.627C15.2727 10.9228 15.5631 11.4442 15.5681 12.0257C15.5805 13.9692 15.577 13.3078 15.5832 14.9234C15.5832 15.3249 15.2414 15.614 14.9121 15.5951C13.2994 15.5889 13.9597 15.5924 12.0174 15.5801ZM21.5278 21.5459C19.5746 23.501 16.3995 23.501 14.4463 21.5459C13.1042 20.2073 12.6835 18.2923 13.1793 16.5878L14.9071 16.5978C14.9071 16.5978 14.9121 16.5978 14.9171 16.5978C15.7964 16.5978 16.5848 15.8882 16.5848 14.9183L16.5748 13.1888C18.2775 12.6925 20.1906 13.1136 21.5278 14.4571C23.4809 16.4123 23.4809 19.5907 21.5278 21.5459ZM7.55131 17.311L7.57379 19.1017C7.57735 19.3835 7.34817 19.6128 7.06672 19.6093L5.27783 19.5868C4.64868 19.5789 4.07664 19.1277 4.00752 18.5017C3.92883 17.7897 4.4776 17.1978 5.17353 17.2066C5.16477 16.5099 5.7561 15.9606 6.46731 16.0394C7.09263 16.1086 7.54336 16.6811 7.55131 17.311ZM16.0269 6.46985C15.9482 5.75791 16.4969 5.16597 17.1929 5.17474C17.1841 4.47803 17.7755 3.92876 18.4867 4.00753C19.112 4.07672 19.5628 4.64935 19.5707 5.27914L19.5931 7.06987C19.5967 7.35168 19.3675 7.58097 19.0861 7.57746L17.2972 7.55496C16.6681 7.54707 16.0961 7.09588 16.0269 6.46985Z" fill="#12B2D2"/>
</svg>
